# xmcd
#
# Track frame offsets:
# 150
# 12672
# 32708
# 47149
# 65972
# 77313
# 94973
# 105097
# 117849
# 137352
# 164652
# 181876
#
# Disc length: 2600 seconds
#
#
# Revision: 0
# Processed by: cddbd v1.5.2PL0 Copyright (c) Steve Scherf et al.
# Submitted via: Nero 7, 11, 10, 0 
#
DISCID=980a260c
DTITLE=Tommy and The Runaway Boys - Crazy Jane
DYEAR=1900
DGENRE=Blues
TTITLE0=Crazy Jane
TTITLE1=Nothing I Can do
TTITLE2=Falling Out
TTITLE3=Chevrolet
TTITLE4=Black Shadows
TTITLE5=Wandering Blues
TTITLE6=Holy Malony
TTITLE7=Extra 1
TTITLE8=Extra 2
TTITLE9=Extra 3
TTITLE10=Extra 4
TTITLE11=Extra 5
EXTD=
EXTT0=Crazy Jane
EXTT1=Nothing I Can do
EXTT2=Falling Out
EXTT3=Chevrolet
EXTT4=Black Shadows
EXTT5=Wandering Blues
EXTT6=Holy Malony
EXTT7=Extra 1
EXTT8=Extra 2
EXTT9=Extra 3
EXTT10=Extra 4
EXTT11=Extra 5
PLAYORDER=
